<svg width="328" height="265" viewBox="0 0 328 265" fill="none" xmlns="http://www.w3.org/2000/svg">
<g filter="url(#filter0_d_3_20)">
<path d="M4 50C4 22.3858 26.3858 0 54 0H274C301.614 0 324 22.3858 324 50V207C324 234.614 301.614 257 274 257H54C26.3858 257 4 234.614 4 207V50Z" fill="url(#paint0_linear_3_20)" shape-rendering="crispEdges"/>
<path d="M129.229 83.4608L126.759 119.989L127.39 120.135L145.713 87.2769L151.637 90.4219L126.006 131.861L119.449 131.452L112.728 81.636L129.229 83.4608ZM196.841 104.139L178.452 116.214L189.688 146.53L174.574 144.139L169.732 121.956L167.816 123.212L161.83 140.45L153.951 139.365L160.736 91.8632L177.674 94.6759L170.525 115.34L191.703 97.9236L196.841 104.139Z" fill="black"/>
<path d="M140.856 191.76L130.879 167.04L139.804 163.671L144.945 190.086L140.856 191.76ZM162.795 162.552C163.279 162.404 163.774 162.335 164.28 162.347C166.065 163.528 167.799 165.995 169.481 169.746C171.156 173.472 172.58 177.247 173.754 181.071L167.048 183.758C165.247 177.895 163.39 172.621 161.477 167.936C158.47 170.227 157.819 176.145 159.524 185.692L155.844 187.199L148.069 168.832L155.865 165.057L157.09 172.045L157.434 171.94C157.773 169.409 158.4 167.319 159.317 165.671C160.233 164.022 161.393 162.983 162.795 162.552ZM182.425 179.036L176.037 164.093L172.671 165.67L171.232 161.802L174.55 160.616L172.333 155.439L181.466 151.253L182.604 157.682L186.331 156.328L187.003 158.925L183.126 160.744L186.105 177.529L182.425 179.036Z" fill="black"/>
<path d="M122 60L217 97L188 201H112" stroke="black"/>
</g>
<defs>
<filter id="filter0_d_3_20" x="0" y="0" width="328" height="265" filterUnits="userSpaceOnUse" color-interpolation-filters="sRGB">
<feFlood flood-opacity="0" result="BackgroundImageFix"/>
<feColorMatrix in="SourceAlpha" type="matrix" values="0 0 0 0 0 0 0 0 0 0 0 0 0 0 0 0 0 0 127 0" result="hardAlpha"/>
<feOffset dy="4"/>
<feGaussianBlur stdDeviation="2"/>
<feComposite in2="hardAlpha" operator="out"/>
<feColorMatrix type="matrix" values="0 0 0 0 0 0 0 0 0 0 0 0 0 0 0 0 0 0 0.25 0"/>
<feBlend mode="normal" in2="BackgroundImageFix" result="effect1_dropShadow_3_20"/>
<feBlend mode="normal" in="SourceGraphic" in2="effect1_dropShadow_3_20" result="shape"/>
</filter>
<linearGradient id="paint0_linear_3_20" x1="164" y1="0" x2="164" y2="257" gradientUnits="userSpaceOnUse">
<stop stop-color="white"/>
<stop offset="0.9999" stop-color="#083441" stop-opacity="0.0520833"/>
<stop offset="1" stop-color="#D2BCBC" stop-opacity="0"/>
</linearGradient>
</defs>
</svg>
