<svg width="139" height="146" viewBox="0 0 139 146" fill="none" xmlns="http://www.w3.org/2000/svg">
<path d="M34.2293 27.4608L31.7591 63.9889L32.3904 64.135L50.7133 31.2769L56.6366 34.4219L31.0061 75.8609L24.4495 75.4516L17.7277 25.636L34.2293 27.4608ZM101.841 48.1388L83.4519 60.2144L94.6881 90.5297L79.5738 88.1392L74.7323 65.9557L72.8157 67.2118L66.8296 84.4498L58.9512 83.365L65.7356 35.8632L82.6736 38.6759L75.5249 59.34L96.7026 41.9236L101.841 48.1388Z" fill="white"/>
<path d="M45.8561 135.76L35.8792 111.04L44.8035 107.671L49.9448 134.086L45.8561 135.76ZM67.7947 106.552C68.279 106.404 68.7741 106.335 69.2799 106.347C71.0654 107.528 72.7992 109.995 74.4813 113.746C76.1556 117.472 77.5799 121.247 78.7542 125.071L72.0477 127.758C70.247 121.895 68.3902 116.621 66.4772 111.936C63.4705 114.227 62.8194 120.145 64.5239 129.692L60.8441 131.199L53.0694 112.832L60.8647 109.057L62.0902 116.045L62.4344 115.94C62.7729 113.409 63.4004 111.319 64.3169 109.671C65.2334 108.022 66.3926 106.983 67.7947 106.552ZM87.4251 123.036L81.0366 108.093L77.6714 109.67L76.2325 105.802L79.5504 104.616L77.3328 99.4387L86.4664 95.2528L87.604 101.682L91.3308 100.328L92.0029 102.926L88.1259 104.744L91.1049 121.529L87.4251 123.036Z" fill="white"/>
<path d="M27 4L122 41L93 145H17" stroke="white"/>
</svg>
